<?xml version="1.0" standalone="no"?>
<!DOCTYPE svg PUBLIC "-//W3C//DTD SVG 20010904//EN"
 "http://www.w3.org/TR/2001/REC-SVG-20010904/DTD/svg10.dtd">
<svg version="1.0" xmlns="http://www.w3.org/2000/svg"
 width="973.000000pt" height="973.000000pt" viewBox="0 0 973.000000 973.000000"
 preserveAspectRatio="xMidYMid meet">
<metadata>
Created by potrace 1.11, written by Peter Selinger 2001-2013
</metadata>
<g transform="translate(0.000000,973.000000) scale(0.100000,-0.100000)"
fill="#000000" stroke="none">
<path d="M4162 8035 c-27 -13 -52 -27 -55 -32 -3 -5 19 3 49 18 45 23 59 26
86 18 45 -13 62 -39 98 -150 45 -142 70 -156 159 -89 54 41 63 57 10 19 -22
-15 -41 -19 -81 -17 l-52 3 -28 91 c-48 148 -93 182 -186 139z"/>
<path d="M4890 8015 c-18 -19 -24 -41 -30 -109 -5 -47 -11 -90 -14 -95 -8 -12
-31 -5 -68 21 -44 31 -44 20 1 -13 69 -50 87 -32 90 91 2 65 17 100 51 117 15
8 19 13 9 13 -8 0 -26 -11 -39 -25z"/>
<path d="M4978 8033 c7 -3 16 -2 19 1 4 3 -2 6 -13 5 -11 0 -14 -3 -6 -6z"/>
<path d="M5041 8017 c17 -14 98 -54 94 -46 -7 10 -79 49 -91 49 -4 0 -5 -1 -3
-3z"/>
<path d="M4184 7984 c-18 -14 -18 -15 4 -4 48 23 77 -5 112 -104 15 -45 17
-57 6 -53 -8 3 -32 9 -53 12 l-38 7 30 -17 c58 -32 93 -79 38 -49 -16 7 -37
14 -48 13 -18 0 -18 -1 4 -17 66 -46 68 -48 47 -71 -32 -35 -79 -42 -140 -21
-29 10 -67 25 -84 34 -45 23 -40 11 6 -14 50 -28 4 -16 -66 17 -33 16 -61 37
-73 57 -10 17 -19 26 -19 19 0 -6 11 -25 25 -41 l25 -30 -32 -7 c-53 -11 -214
-64 -326 -106 -205 -78 -486 -234 -666 -371 -229 -174 -452 -403 -582 -598
-145 -216 -331 -583 -409 -807 l-19 -52 -495 -3 -496 -3 -59 -24 c-43 -17 -81
-45 -141 -102 -87 -84 -122 -138 -152 -234 -17 -56 -18 -114 -18 -920 0 -791
1 -864 17 -915 28 -86 68 -154 136 -229 49 -55 79 -79 139 -108 l77 -38 768
-3 767 -3 168 -168 c188 -188 313 -286 564 -444 922 -581 2159 -548 3053 81
151 106 382 304 484 415 l102 112 773 5 772 5 68 32 c105 50 218 176 270 304
l22 54 3 879 c3 961 5 922 -55 1040 -29 56 -118 154 -179 196 -22 16 -68 38
-102 49 -59 20 -83 21 -540 21 l-479 0 -47 133 c-150 417 -371 769 -671 1072
-222 223 -459 392 -750 535 -197 97 -300 136 -445 169 -142 33 -194 51 -181
64 20 20 12 56 -20 89 l-31 33 26 -33 c50 -65 30 -98 -95 -155 -42 -19 -79
-39 -83 -45 -3 -5 12 -45 33 -88 78 -156 201 -563 201 -665 0 -10 -22 -27 -55
-43 -77 -38 -165 -105 -205 -157 -28 -36 -24 -33 25 17 121 122 278 189 433
182 78 -3 95 -7 137 -33 33 -21 57 -47 79 -85 29 -52 31 -62 34 -176 4 -139
-16 -269 -53 -349 -50 -104 -196 -249 -298 -296 -23 -10 -34 -19 -24 -19 21 0
23 -16 2 -24 -29 -11 -15 -38 71 -137 84 -97 132 -136 159 -125 8 3 19 24 25
48 6 24 15 51 20 60 6 10 10 29 10 42 0 13 12 38 26 55 20 24 34 31 61 31 28
0 48 10 89 44 49 40 57 43 89 36 44 -10 99 4 126 31 29 29 45 18 65 -43 36
-115 30 -388 -12 -537 -20 -71 -97 -241 -141 -313 -40 -65 -69 -88 -112 -88
-57 0 -236 53 -381 112 -393 161 -381 159 -875 159 -214 0 -426 -4 -470 -9
-44 -6 -82 -9 -84 -7 -2 2 7 18 19 34 35 51 87 173 93 221 6 43 6 43 -8 -10
-7 -30 -33 -93 -56 -140 -55 -111 -140 -197 -269 -272 -128 -75 -175 -90 -295
-95 -91 -4 -104 -2 -145 19 -129 69 -154 323 -60 611 54 165 107 248 195 305
61 39 115 35 192 -12 51 -31 76 -39 129 -44 l65 -5 55 -73 c44 -61 59 -74 82
-74 15 0 49 -11 76 -25 27 -14 51 -25 53 -25 9 0 1 39 -9 47 -19 15 -66 24
-70 15 -2 -5 -20 -7 -40 -4 -32 3 -44 12 -74 55 -21 28 -37 63 -38 77 -1 18
-10 30 -34 42 l-34 16 25 16 c28 19 47 56 47 94 0 24 13 35 95 86 52 33 95 61
95 63 0 2 -3 2 -7 0 -5 -3 -62 -37 -128 -77 l-120 -72 -167 6 c-187 7 -257 22
-338 69 -83 49 -95 81 -93 235 2 113 4 126 30 173 28 53 153 176 232 232 69
48 150 68 288 74 120 6 173 1 173 -16 0 -4 -11 -6 -24 -4 -25 5 -98 -27 -133
-60 -18 -16 -20 -23 -11 -41 15 -29 28 -36 67 -36 28 0 43 9 78 45 l43 45 0
-30 c0 -38 39 -80 73 -80 13 0 32 -10 43 -21 19 -22 19 -22 -3 -10 -47 24 -91
7 -138 -55 -25 -33 -26 -36 -11 -59 18 -27 37 -31 83 -15 22 8 37 25 54 60 13
27 27 49 32 50 4 0 7 -16 7 -34 0 -29 7 -40 38 -62 54 -41 60 -47 34 -39 -31
9 -75 -25 -101 -78 -25 -51 -27 -93 -5 -101 25 -10 82 21 104 56 27 44 25 31
-6 -47 -19 -48 -34 -70 -55 -81 -16 -8 -29 -17 -29 -20 0 -2 14 3 31 11 49 26
105 171 92 237 -4 19 -20 39 -49 59 -35 24 -44 36 -44 59 0 26 7 33 52 56 46
23 52 24 60 9 12 -20 67 -85 88 -103 8 -7 32 -21 53 -32 l37 -20 0 31 c0 68
64 137 114 124 37 -11 96 -38 96 -45 0 -20 -104 -77 -163 -90 l-42 -9 41 3
c23 2 59 12 80 22 43 20 278 194 271 200 -2 3 -35 -3 -73 -12 -38 -10 -109
-17 -159 -18 -81 0 -97 3 -160 32 -54 26 -85 50 -140 109 -120 131 -194 203
-206 203 -7 0 -4 -10 9 -22 24 -27 82 -140 76 -150 -2 -3 -41 -27 -85 -53 -64
-37 -83 -44 -90 -34 -5 8 -9 20 -9 27 0 27 -40 52 -83 52 l-43 0 8 68 c20 169
85 347 170 466 105 146 139 200 136 215 -2 8 -19 23 -38 34 -24 13 -29 14 -16
3 11 -9 23 -16 28 -16 4 0 8 -4 8 -8 0 -4 -42 -16 -92 -26 -388 -78 -750 -242
-1088 -494 -141 -105 -386 -349 -493 -489 -201 -264 -361 -578 -442 -863 -15
-52 -29 -101 -31 -107 -3 -10 -101 -13 -446 -13 -480 -1 -560 -6 -642 -45 -65
-31 -152 -114 -189 -183 -55 -102 -57 -124 -57 -888 0 -462 4 -721 11 -760 30
-163 161 -292 330 -324 34 -7 312 -10 754 -10 l700 1 73 -88 c426 -513 1033
-846 1712 -939 172 -24 501 -24 670 -1 327 46 580 123 865 264 318 157 622
398 853 676 l73 87 703 0 c434 0 724 4 757 10 125 24 237 111 292 227 l32 68
0 790 0 790 -32 68 c-66 139 -187 229 -332 248 -36 4 -266 9 -511 9 l-445 0
-32 116 c-52 184 -149 410 -248 579 -325 551 -832 968 -1431 1175 -124 43
-337 100 -373 100 -22 0 -61 32 -61 50 0 6 21 20 46 32 l45 23 132 -34 c765
-196 1393 -689 1770 -1391 54 -101 122 -263 166 -399 23 -69 46 -130 52 -137
9 -11 120 -14 527 -16 l517 -3 58 -28 c123 -61 196 -142 224 -250 10 -40 13
-239 13 -921 0 -947 2 -924 -56 -1038 -42 -83 -123 -147 -227 -180 -55 -17
-112 -18 -822 -18 l-763 0 -40 -52 c-60 -78 -265 -276 -357 -344 -474 -354
-956 -544 -1505 -594 -273 -24 -640 2 -910 66 -216 51 -460 144 -585 223 -33
21 -96 57 -139 80 -197 104 -463 327 -646 541 l-64 75 -786 5 -785 5 -69 34
c-125 61 -190 149 -220 294 -14 66 -16 188 -16 896 0 888 2 927 54 1015 36 61
108 123 184 159 l67 32 517 3 c390 2 518 6 526 15 5 7 17 44 26 83 22 93 67
211 117 303 21 40 53 105 69 145 46 109 110 213 240 385 360 476 835 807 1408
980 172 51 207 57 255 37 20 -9 37 -14 37 -11 0 3 -15 11 -32 19 -43 19 -22
20 30 2 50 -18 98 -7 133 30 l24 26 -28 24 c-15 13 -23 24 -16 24 7 0 23 -10
36 -22 34 -31 31 1 -3 42 l-27 31 28 -7 c25 -6 27 -5 20 17 -25 80 -49 131
-72 149 -31 24 -43 25 -69 4z m343 -1319 l37 -16 -31 -18 c-32 -20 -53 -64
-53 -112 0 -36 -7 -36 -59 1 -45 33 -46 41 -15 102 15 29 51 58 72 58 7 0 29
-7 49 -15z m-637 -765 c0 -5 -5 -10 -11 -10 -5 0 -7 5 -4 10 3 6 8 10 11 10 2
0 4 -4 4 -10z m265 -180 c3 -5 2 -10 -4 -10 -5 0 -13 5 -16 10 -3 6 -2 10 4
10 5 0 13 -4 16 -10z m-2211 -265 c67 -13 137 -31 156 -39 102 -43 208 -158
236 -254 35 -120 1 -276 -76 -345 -97 -88 -256 -128 -359 -91 -116 41 -211
158 -211 259 0 32 -7 51 -26 74 -29 35 -45 38 -65 15 -10 -13 -10 -19 0 -36
17 -27 4 -38 -48 -45 -35 -5 -46 -2 -66 17 -21 20 -25 33 -25 81 0 47 4 62 21
78 34 32 83 51 129 51 54 0 147 -58 162 -101 14 -41 104 -83 146 -68 37 13
102 93 102 127 0 46 -23 103 -51 127 -76 63 -335 58 -467 -9 -96 -49 -227
-248 -257 -391 -20 -94 -19 -310 1 -416 40 -212 158 -371 339 -455 101 -47
199 -64 364 -64 161 0 176 5 284 84 54 40 74 63 96 108 l27 58 42 -43 c37 -37
44 -52 53 -108 13 -79 -2 -177 -36 -234 -33 -57 -115 -140 -162 -164 -57 -28
-164 -57 -291 -77 -232 -36 -422 8 -623 143 -159 108 -253 232 -303 396 -87
287 -85 446 6 741 47 153 110 265 208 370 42 45 159 136 175 136 3 0 40 16 81
36 139 66 253 77 438 39z m6156 -148 c131 -30 140 -39 140 -147 0 -86 -11
-109 -82 -176 -74 -69 -97 -84 -498 -319 -195 -114 -375 -222 -400 -239 -48
-34 -89 -86 -120 -151 -28 -58 -28 -197 0 -243 25 -41 46 -49 69 -28 21 19 72
23 53 4 -15 -15 -16 -105 -1 -114 15 -9 5 -124 -15 -161 -35 -67 -90 -97 -183
-97 -77 -1 -106 12 -147 68 -19 25 -21 41 -21 194 0 166 0 168 39 292 57 186
115 330 214 533 50 100 104 218 120 262 17 44 42 102 56 128 14 27 23 54 20
61 -6 17 -67 25 -128 19 -42 -5 -46 -8 -46 -33 0 -16 15 -47 36 -75 l36 -47
-22 -48 -23 -49 -36 18 c-59 31 -157 107 -186 145 -38 49 -44 113 -17 158 19
31 27 35 99 47 43 7 83 15 88 17 6 2 208 2 450 0 344 -3 454 -7 505 -19z
m-5097 -490 c48 -21 46 -44 -4 -72 -106 -60 -129 -90 -129 -166 0 -46 -8 -48
-69 -13 -109 62 -141 88 -141 115 0 29 -23 55 -40 44 -14 -9 -13 -68 3 -87 30
-38 131 -101 206 -128 139 -51 219 -35 306 62 59 65 75 116 52 164 -21 42 -22
78 -3 93 9 8 63 11 167 9 140 -3 154 -5 157 -21 4 -18 -18 -46 -48 -60 -44
-22 -69 -40 -114 -86 -133 -131 -213 -202 -233 -207 -34 -9 -28 -17 31 -42 82
-36 111 -73 155 -198 22 -60 46 -149 56 -199 30 -161 70 -225 174 -280 93 -49
102 -73 35 -101 -41 -17 -344 -20 -375 -4 -15 9 -19 22 -19 68 0 32 -9 98 -20
147 -10 50 -22 122 -26 160 -7 67 -49 186 -90 252 -40 64 -100 115 -182 153
-104 49 -235 128 -290 175 -92 79 -127 169 -82 210 32 29 77 34 285 31 158 -2
208 -6 238 -19z m1596 -3 c28 -23 31 -31 31 -86 0 -32 -4 -67 -9 -77 -6 -10
-38 -35 -73 -56 -35 -21 -176 -111 -314 -201 -138 -89 -265 -169 -282 -178
-46 -24 -101 -74 -119 -110 -22 -43 -22 -155 0 -190 17 -25 57 -37 57 -16 0 6
7 10 16 10 25 0 16 -172 -11 -217 -34 -58 -104 -77 -168 -47 -47 23 -92 115
-89 184 3 66 63 272 116 394 24 56 47 112 51 126 4 14 28 70 55 125 26 55 58
120 69 145 12 25 30 61 41 80 30 55 27 60 -40 60 l-60 0 0 -32 c0 -19 9 -41
21 -55 l22 -22 -24 -35 c-22 -32 -25 -34 -49 -21 -51 27 -111 76 -130 108 -25
41 -25 72 1 108 l20 29 419 0 418 0 31 -26z m915 16 c22 -5 51 -20 65 -34 22
-23 25 -33 24 -93 -2 -106 -33 -187 -99 -253 -50 -51 -54 -59 -54 -102 0 -31
5 -50 14 -55 24 -14 126 -135 147 -175 15 -30 19 -57 18 -135 0 -54 -6 -115
-12 -135 -20 -62 -101 -146 -176 -182 l-66 -31 -201 0 -200 0 -58 40 c-81 56
-110 92 -135 171 -36 114 -25 231 27 308 40 59 150 116 223 116 73 0 148 -26
159 -55 10 -26 55 -61 85 -66 28 -6 33 -69 8 -104 -16 -21 -26 -24 -80 -25
-34 0 -65 5 -68 10 -3 6 -17 10 -31 10 -14 0 -27 6 -30 14 -7 19 -37 10 -64
-19 -18 -19 -21 -31 -16 -58 11 -60 38 -84 117 -102 91 -20 148 -12 215 30 68
43 90 74 98 136 9 67 -16 120 -102 211 -59 61 -68 68 -104 68 -21 0 -52 7 -69
15 -29 15 -30 18 -27 78 l3 62 52 3 c29 2 56 9 63 17 7 8 18 15 24 15 20 0
134 123 151 162 14 36 14 38 -10 63 -26 25 -28 25 -183 25 -126 0 -162 -3
-180 -16 -23 -16 -30 -58 -12 -69 6 -3 10 -21 10 -40 0 -52 -68 -102 -107 -77
-8 5 -9 13 -3 22 20 31 9 48 -52 86 -35 21 -68 45 -75 53 -22 29 -15 67 18 95
l31 26 311 0 c172 0 330 -5 351 -10z m711 -11 c59 -21 56 -41 -12 -87 -92 -63
-123 -106 -123 -172 l0 -29 -87 50 c-111 64 -113 66 -113 98 0 29 -16 51 -37
51 -8 0 -13 -13 -13 -37 0 -114 304 -257 421 -198 102 52 159 128 159 212 0
29 -6 62 -12 73 -10 15 -10 25 -2 38 10 15 31 17 168 20 l156 3 0 -26 c0 -31
-10 -42 -70 -74 -25 -14 -90 -70 -145 -126 -55 -55 -118 -116 -140 -135 -22
-18 -35 -35 -30 -37 6 -2 34 -17 62 -33 58 -34 102 -97 128 -185 40 -138 65
-243 65 -272 0 -18 16 -60 38 -99 34 -59 46 -71 99 -98 73 -38 93 -54 93 -75
0 -37 -38 -46 -216 -49 l-171 -4 -22 35 c-11 19 -21 46 -21 60 0 60 -52 342
-74 400 -42 112 -93 201 -133 232 -21 17 -86 53 -144 81 -195 94 -331 203
-358 287 -20 61 -1 89 74 108 51 14 415 4 460 -12z m1718 -61 c13 -52 166
-727 176 -778 17 -82 40 -111 136 -176 134 -90 143 -118 49 -154 -66 -24 -168
-27 -241 -5 -45 13 -55 13 -93 0 -62 -22 -194 -19 -247 5 -37 16 -43 23 -43
49 0 42 57 104 110 120 l40 12 0 79 c0 109 -14 198 -71 463 -27 126 -49 237
-49 246 0 12 38 44 108 90 59 39 110 71 113 71 4 0 9 -10 12 -22z m-5168 -336
l90 -47 3 -286 2 -286 85 -53 c59 -36 85 -57 85 -71 0 -13 -7 -19 -22 -19 -13
0 -32 -7 -42 -15 -16 -12 -61 -15 -231 -15 l-212 0 -14 26 c-13 25 -12 28 26
60 22 19 57 49 78 68 l37 33 0 326 c0 255 3 327 13 327 6 -1 53 -22 102 -48z
m3225 4 l85 -43 5 -279 c6 -308 6 -313 69 -334 49 -16 115 -75 108 -95 -4 -8
-14 -15 -24 -15 -10 0 -27 -7 -37 -15 -16 -12 -59 -15 -220 -15 -178 0 -204 2
-225 19 -34 26 -23 50 44 96 33 23 66 52 72 66 9 17 13 110 13 342 0 247 3
317 13 317 6 -1 50 -20 97 -44z m-1535 -206 c30 -118 63 -248 71 -289 25 -120
38 -143 90 -165 25 -10 48 -26 52 -35 3 -9 13 -21 21 -28 12 -9 13 -17 6 -40
l-10 -28 -200 -3 c-180 -2 -204 0 -235 17 -19 10 -37 26 -38 36 -5 20 54 77
99 95 35 15 35 24 5 120 -14 42 -36 158 -51 259 -22 152 -24 186 -13 197 29
29 133 93 139 86 4 -4 33 -104 64 -222z m-496 -915 c65 -8 110 -19 119 -29 27
-27 5 -29 -60 -5 -54 20 -81 23 -188 23 -107 0 -136 -4 -202 -26 -122 -40
-202 -101 -248 -187 -21 -40 3 -121 49 -168 82 -85 283 -109 469 -56 111 31
366 153 461 220 173 122 206 143 227 143 36 0 40 -21 9 -44 -16 -11 -92 -61
-169 -112 -288 -186 -472 -263 -651 -272 -166 -7 -311 33 -399 110 -33 29 -41
43 -46 84 -3 27 -2 67 3 89 14 67 106 149 217 193 131 51 234 61 409 37z
m1746 -23 c125 -44 229 -119 254 -185 14 -36 14 -108 0 -144 -23 -62 -122
-121 -247 -148 -219 -46 -439 11 -727 187 -176 108 -306 199 -302 211 7 23 47
18 90 -11 23 -16 85 -58 137 -94 99 -69 300 -174 409 -215 100 -37 188 -54
282 -54 176 0 286 59 315 171 17 65 8 90 -54 153 -53 54 -106 85 -208 119 -98
32 -293 33 -374 0 -65 -26 -70 -26 -70 -8 0 19 21 26 125 42 135 20 267 11
370 -24z m-1647 -92 c103 -9 318 -55 327 -70 11 -18 -22 -31 -51 -19 -16 6
-53 17 -83 25 -46 12 -56 12 -65 0 -14 -18 -166 -66 -233 -73 -28 -3 -67 -3
-87 1 -34 6 -36 9 -36 45 0 42 15 61 70 84 43 19 33 18 158 7z m1334 -7 c61
-23 78 -41 78 -80 0 -40 -24 -53 -99 -53 -55 0 -241 55 -258 77 -10 13 -19 12
-80 -5 -37 -11 -75 -23 -84 -26 -17 -7 -46 18 -32 27 30 18 233 60 343 70 75
8 91 6 132 -10z m-892 -128 c14 -8 21 -14 15 -14 -5 0 -21 6 -35 14 -14 8 -20
14 -15 14 6 0 21 -6 35 -14z m330 5 c-8 -5 -19 -10 -25 -10 -5 0 -3 5 5 10 8
5 20 10 25 10 6 0 3 -5 -5 -10z m-92 -37 c-32 -15 -58 -30 -58 -35 0 -5 5 -6
10 -3 6 4 50 -15 98 -42 48 -26 103 -55 122 -65 l35 -16 -31 -1 c-31 -1 -104
-28 -208 -76 l-59 -28 -76 36 c-101 47 -156 67 -189 67 -26 1 -25 2 13 21 22
12 75 41 118 66 43 24 85 42 93 39 30 -12 12 5 -33 29 -49 26 -42 26 34 -3 40
-15 44 -15 105 10 81 34 100 34 26 1z"/>
<path d="M7900 5171 c-13 -26 -13 -107 1 -132 8 -17 7 -23 -8 -34 -41 -31
-219 -135 -230 -135 -7 0 -28 49 -47 110 -19 60 -43 121 -53 135 -39 53 -98
16 -160 -101 -36 -67 -204 -466 -199 -471 8 -9 654 388 704 432 30 27 61 63
68 81 20 47 18 104 -3 120 -26 19 -61 17 -73 -5z"/>
<path d="M4387 4753 c-4 -3 -7 -33 -7 -65 l0 -58 -52 -34 c-73 -49 -127 -70
-133 -54 -2 7 -11 38 -19 68 -17 62 -40 100 -61 100 -26 0 -73 -51 -104 -112
-44 -90 -141 -309 -141 -321 0 -16 22 -3 263 154 268 174 317 216 317 269 0
20 -5 41 -12 48 -13 13 -41 16 -51 5z"/>
<path d="M4010 3149 c-66 -8 -132 -31 -138 -47 -2 -6 16 -16 39 -22 45 -12 33
-15 219 56 l35 13 -30 1 c-16 1 -39 3 -50 4 -11 2 -45 0 -75 -5z"/>
<path d="M5190 3149 c-19 -3 -27 -7 -17 -8 9 0 41 -12 69 -26 82 -40 122 -48
168 -34 22 7 40 16 40 20 0 4 -24 17 -53 28 -58 21 -151 30 -207 20z"/>
<path d="M4567 2923 l-57 -36 32 -20 c57 -34 113 -46 155 -33 47 14 103 44
103 54 0 4 -25 22 -54 40 -71 42 -105 41 -179 -5z"/>
<path d="M4054 7958 l-19 -23 25 20 c14 11 27 21 29 22 2 2 0 3 -6 3 -5 0 -18
-10 -29 -22z"/>
<path d="M4082 7904 c-40 -36 -79 -78 -86 -93 -14 -26 -8 -63 13 -75 6 -4 4 5
-4 20 -19 38 -3 66 87 148 40 36 71 66 68 66 -3 0 -38 -30 -78 -66z"/>
<path d="M4953 7958 c-11 -14 -43 -105 -43 -121 0 -6 9 -2 20 8 28 25 33 15
15 -29 -12 -29 -13 -37 -3 -33 7 2 12 10 10 17 -1 7 6 28 18 47 26 45 26 46
-10 28 -34 -18 -36 -11 -14 45 15 37 19 40 55 40 22 0 56 -7 76 -15 20 -8 38
-14 40 -11 2 2 -14 11 -37 20 -48 19 -114 21 -127 4z"/>
<path d="M5150 7958 c0 -2 21 -21 48 -43 26 -21 38 -28 27 -16 -19 23 -75 66
-75 59z"/>
<path d="M4001 7920 c-31 -27 -81 -90 -81 -104 0 -6 8 3 18 19 11 17 36 47 58
68 41 40 44 49 5 17z"/>
<path d="M5150 7913 c121 -87 128 -141 27 -189 -29 -13 -46 -24 -39 -24 24 0
92 40 108 65 10 15 13 32 9 47 -10 31 -63 86 -100 104 l-30 14 25 -17z"/>
<path d="M4639 7903 c15 -29 14 -36 -5 -29 -8 3 -13 2 -10 -3 3 -5 22 -9 41
-8 19 1 33 1 32 1 -1 1 -17 15 -36 31 -28 25 -32 26 -22 8z"/>
<path d="M4579 7886 l23 -24 -22 -7 c-12 -4 -19 -9 -17 -12 3 -2 14 0 25 6 23
12 23 38 1 52 -27 17 -32 9 -10 -15z"/>
<path d="M4964 7801 c3 -4 -1 -17 -9 -27 -8 -10 -14 -23 -14 -29 0 -5 7 -1 15
10 15 20 16 19 12 -5 -2 -21 5 -29 43 -49 40 -22 51 -23 80 -13 l34 11 -36 -5
c-25 -4 -49 0 -75 14 -32 17 -39 25 -38 49 0 16 4 35 8 41 4 7 1 12 -9 12 -9
0 -14 -4 -11 -9z"/>
<path d="M4510 7479 c-12 -8 -10 -9 8 -4 14 4 34 0 50 -10 l27 -16 -24 20
c-26 23 -39 26 -61 10z"/>
<path d="M4723 7454 l-28 -26 29 21 c40 29 60 26 105 -14 74 -68 113 -220 74
-295 -26 -51 -50 -52 -45 -2 6 67 -58 162 -109 162 -21 0 -25 -20 -8 -37 12
-12 4 -33 -11 -33 -18 0 -43 90 -38 141 3 29 2 45 -3 37 -16 -25 -9 -93 18
-171 35 -99 84 -150 140 -145 56 5 78 42 78 131 -1 91 -30 161 -91 217 -51 47
-73 50 -111 14z"/>
<path d="M4441 7425 c-22 -24 -41 -48 -41 -51 0 -4 1 -5 3 -3 2 2 23 25 47 52
23 26 40 47 38 47 -3 0 -24 -20 -47 -45z"/>
<path d="M4597 7405 c7 -49 13 -58 13 -19 0 16 -5 36 -10 44 -6 10 -7 2 -3
-25z"/>
<path d="M4380 7339 c-7 -11 -13 -46 -15 -77 l-4 -57 9 57 c5 32 14 67 20 78
6 11 8 20 6 20 -3 0 -10 -9 -16 -21z"/>
<path d="M4602 7325 c0 -16 2 -22 5 -12 2 9 2 23 0 30 -3 6 -5 -1 -5 -18z"/>
<path d="M4490 7285 c-9 -10 -9 -15 -1 -15 6 0 11 -9 11 -20 0 -22 -40 -29
-40 -7 0 6 -12 -1 -26 -17 -20 -23 -25 -37 -22 -68 2 -21 1 -38 -2 -38 -13 1
-30 18 -39 40 -9 24 -10 24 -10 3 -1 -31 36 -53 89 -53 38 0 52 6 82 33 23 21
40 49 48 76 6 23 14 50 16 59 4 13 3 14 -3 4 -8 -10 -12 -10 -23 3 -16 19 -64
20 -80 0z"/>
<path d="M4505 7096 c-124 -43 -184 -132 -141 -214 40 -76 184 -152 291 -152
57 0 152 26 203 56 110 65 109 187 -2 263 -103 71 -230 88 -351 47z m310 -100
c31 -22 3 -48 -49 -44 -36 3 -41 6 -44 31 -3 25 -1 27 35 27 22 0 48 -6 58
-14z"/>
<path d="M5000 6578 c-17 -35 -30 -70 -29 -78 0 -8 6 1 14 21 7 19 22 54 34
77 12 23 19 42 16 42 -3 0 -19 -28 -35 -62z"/>
<path d="M4951 6424 c-16 -80 -14 -146 5 -170 15 -18 15 -18 5 3 -14 28 -14
98 0 163 6 28 9 53 6 56 -2 2 -9 -21 -16 -52z"/>
<path d="M5012 6444 c-38 -26 -55 -72 -49 -127 4 -27 12 -55 18 -63 6 -8 8
-14 3 -14 -5 0 0 -7 10 -15 11 -8 27 -15 35 -15 9 1 3 7 -14 14 l-30 14 25 10
c40 16 60 46 67 99 4 39 1 58 -13 82 -21 36 -22 36 -52 15z"/>
<path d="M5195 6265 c-41 -21 -63 -50 -71 -91 -17 -92 86 -83 121 11 30 78 10
110 -50 80z"/>
<path d="M5068 6194 c14 -10 23 -27 23 -47 2 -32 2 -32 6 -4 5 29 -19 67 -41
67 -6 0 0 -7 12 -16z"/>
<path d="M5100 6106 c0 -2 8 -10 18 -17 15 -13 16 -12 3 4 -13 16 -21 21 -21
13z"/>
<path d="M5329 6073 c-22 -21 -46 -55 -53 -77 l-13 -38 -29 43 c-24 36 -94 92
-94 76 0 -3 16 -14 35 -26 19 -11 42 -35 51 -53 22 -45 59 -70 108 -73 27 -2
30 -1 8 2 l-33 4 32 22 c45 30 85 108 70 136 -17 30 -36 26 -82 -16z"/>
<path d="M4193 5620 c0 -30 2 -43 4 -27 2 15 2 39 0 55 -2 15 -4 2 -4 -28z"/>
</g>
</svg>
